<?xml version="1.0" encoding="UTF-8"?>
<svg id="Layer_2" data-name="Layer 2" xmlns="http://www.w3.org/2000/svg" viewBox="0 0 133.5 133.55">
  <defs>
    <style>
      .cls-1 {
        fill: #3945af;
      }
    </style>
  </defs>
  <g id="Layer_1-2" data-name="Layer 1">
    <g>
      <g>
        <g>
          <rect class="cls-1" x="28.97" width="7.86" height="31.1"/>
          <path class="cls-1" d="m56.05,28.87c0,.28-.03.57-.1.84-.03.23-.12.45-.2.67l-.02.03c-.2.45-.49.87-.84,1.22-.7.72-1.69,1.15-2.78,1.15H13.66c-1.61,0-2.99-.99-3.6-2.38l-.02-.03c-.08-.22-.17-.44-.2-.67-.07-.27-.1-.55-.1-.84,0-2.18,1.76-3.93,3.91-3.93h38.46c2.18,0,3.93,1.76,3.93,3.93Z"/>
          <rect class="cls-1" x="28.97" y=".25" width="7.86" height="24.06" transform="translate(45.17 -20.62) rotate(90)"/>
          <path class="cls-1" d="m55.95,29.7c-.03.23-.12.45-.2.67l-.02.03-7.78,17.65c-1.31,2.98-1.99,6.19-1.99,9.45v7.44c0,.12,0,.25.02.37l3.91,34.73H15.9l3.91-34.73c.01-.12.02-.25.02-.37v-7.44c0-3.25-.68-6.47-1.99-9.45l-7.78-17.65-.02-.03c-.08-.22-.17-.44-.2-.67h46.11Z"/>
          <rect class="cls-1" x="12.11" y="54.5" width="41.57" height="11.92" rx="5.96" ry="5.96"/>
        </g>
        <path class="cls-1" d="m57.78,114.02h0c0-2.77-2.25-5.02-5.02-5.02H13.04c-2.77,0-5.02,2.25-5.02,5.02v3.37c-4.58.93-8.02,4.98-8.02,9.84v2.98c0,1.85,1.5,3.35,3.35,3.35h59.1c1.85,0,3.35-1.5,3.35-3.35v-2.98c0-3.82-2.13-7.14-5.28-8.84-1.64-.88-2.74-2.5-2.74-4.36Z"/>
      </g>
      <g>
        <path class="cls-1" d="m126.38,114.02h0c0-2.77-1.99-5.02-4.45-5.02h-35.22c-2.46,0-4.45,2.25-4.45,5.02v3.37c-4.06.93-7.11,4.98-7.11,9.84v2.98c0,1.85,1.33,3.35,2.97,3.35h52.41c1.64,0,2.97-1.5,2.97-3.35v-2.98c0-3.82-1.89-7.14-4.68-8.84-1.45-.88-2.43-2.5-2.43-4.36Z"/>
        <path class="cls-1" d="m120.03,50.42v7.85h-7.53v-7.85h-16.36v7.85h-7.53v-7.85h-9.17v18.97l8.73,9.02h.03v21.68h32.24v-21.68h.02l8.73-9.02v-18.97h-9.17Zm-11.38,38.3h-8.67v-9.25c0-2.39,1.94-4.33,4.33-4.33,1.19,0,2.28.49,3.06,1.27.79.79,1.27,1.86,1.27,3.06v9.25Z"/>
      </g>
    </g>
  </g>
</svg>