<?xml version="1.0" encoding="UTF-8"?>
<svg id="Layer_2" data-name="Layer 2" xmlns="http://www.w3.org/2000/svg" viewBox="0 0 667.43 755.49">
  <defs>
    <style>
      .cls-1 {
        fill: #fff;
      }

      .cls-2 {
        fill: #1976d2;
      }
    </style>
  </defs>
  <g id="Layer_1-2" data-name="Layer 1">
    <g>
      <path class="cls-2" d="m632.43,755.49H150C67.16,755.49,0,688.33,0,605.49V150C0,67.16,67.16,0,150,0h482.43c19.33,0,35,15.67,35,35v491.6c0,4.07-.89,8.09-2.6,11.77l-12.06,26.01c-1.78,3.85-2.73,8.03-2.78,12.27l-.84,72.42c-.05,4.7,1,9.35,3.07,13.57l12.34,25.15c1.88,3.84,2.86,8.06,2.86,12.34v20.37c0,19.33-15.67,35-35,35Z"/>
      <rect class="cls-1" x="193.07" y="185.22" width="332" height="52"/>
      <rect class="cls-1" x="193.07" y="278.22" width="332" height="52"/>
      <path class="cls-1" d="m142.07,567.22h426v96H142.07c-26.49,0-48-21.51-48-48h0c0-26.49,21.51-48,48-48Z"/>
    </g>
  </g>
</svg>