<?xml version="1.0" encoding="UTF-8"?>
<svg id="Layer_2" data-name="Layer 2" xmlns="http://www.w3.org/2000/svg" viewBox="0 0 258.7 258.7">
  <defs>
    <style>
      .cls-1 {
        fill: #fff;
      }

      .cls-2 {
        fill: #f5b41c;
      }

      .cls-3 {
        fill: #3945af;
      }

      .cls-4 {
        fill: #e6e8ef;
      }
    </style>
  </defs>
  <g id="Layer_1-2" data-name="Layer 1">
    <circle class="cls-4" cx="129.35" cy="129.35" r="129.35"/>
    <g>
      <path class="cls-1" d="m129.35,53.28c-4.19,0-7.82,2.37-9.66,5.84h19.31c-1.84-3.47-5.47-5.84-9.66-5.84Z"/>
      <rect class="cls-1" x="152.72" y="64.34" width="5.99" height="112.83"/>
      <path class="cls-2" d="m110,52.19c-7.55.49-10.38,5.7-10.42,5.75-1.9,3.8-1.9,6.16-1.9,10.45v130.18l3.7-3.92c.97-1.05,2.34-1.63,3.77-1.64h.04c1.42,0,2.77.56,3.76,1.59l4.1,4.24V64.53c0-4.4,1.17-8.59,3.13-12.1-2.91-.16-4.97-.26-5.94-.26-.1,0-.17.01-.25.01Z"/>
      <rect class="cls-1" x="173.77" y="64.34" width="4.61" height="112.83"/>
      <rect class="cls-1" x="163.94" y="64.34" width="4.61" height="112.83"/>
      <path class="cls-3" d="m144.66,59.12c-1.96-5.9-7.22-10.28-13.59-10.97.46.03.74.05.74.05-.45-.09-.91-.13-1.38-.13-.11,0-.23,0-.35.01-.05,0-.11-.01-.16-.01-4.63-.32-16.46-1.11-19.68-1.11-.24,0-.43,0-.56.01-10.76.71-14.76,8.61-14.76,8.61-.64,1.26-1.1,2.43-1.45,3.54h-5.93c-6.88,0-12.46,5.58-12.46,12.45v98.38c0,6.87,5.58,12.45,12.46,12.45h4.92v29.36l12.73-13.52,13.09,13.52v-29.36h65.33V59.12h-38.95Zm-31.61,5.42v134.29l-4.1-4.24c-.99-1.03-2.34-1.59-3.76-1.59h-.04c-1.43.01-2.79.6-3.77,1.64l-3.7,3.92V68.38c0-4.29,0-6.65,1.9-10.45.03-.05,2.86-5.25,10.42-5.75.07,0,.14-.01.25-.01.97,0,3.03.09,5.94.26-1.96,3.51-3.13,7.7-3.13,12.1Zm6.64-5.42c1.84-3.47,5.47-5.84,9.66-5.84s7.82,2.37,9.66,5.84h-19.31Zm39.01,118.05h-5.99v-112.83h5.99v112.83Zm9.84,0h-4.61v-112.83h4.61v112.83Zm9.83,0h-4.61v-112.83h4.61v112.83Z"/>
    </g>
  </g>
</svg>