<?xml version="1.0" encoding="UTF-8"?>
<svg id="Layer_2" data-name="Layer 2" xmlns="http://www.w3.org/2000/svg" viewBox="0 0 244.49 243.35">
  <defs>
    <style>
      .cls-1 {
        fill: #94c4f4;
      }

      .cls-1, .cls-2, .cls-3, .cls-4, .cls-5, .cls-6 {
        fill-rule: evenodd;
      }

      .cls-7 {
        fill: #436285;
      }

      .cls-2 {
        fill: #143f66;
      }

      .cls-3 {
        fill: #75b8ef;
      }

      .cls-4 {
        fill: #aad5f9;
      }

      .cls-5 {
        fill: #2e69a3;
      }

      .cls-6 {
        fill: #69a2d6;
      }
    </style>
  </defs>
  <g id="OBJECTS">
    <g>
      <path class="cls-2" d="m42.15,1.85C32.45.62,22.68,0,12.9,0v68.4c6.89,0,13.77.44,20.61,1.31L42.15,1.85Z"/>
      <path class="cls-5" d="m110.26,21.46c-15.05-6.97-30.8-12.31-46.99-15.91l-14.88,66.77c11.41,2.54,22.5,6.3,33.11,11.21l28.76-62.07Z"/>
      <path class="cls-6" d="m173.33,64.56c-13.26-12.74-28-23.85-43.89-33.11l-34.42,59.11c11.2,6.52,21.58,14.35,30.93,23.33l47.39-49.34Z"/>
      <path class="cls-3" d="m223.35,134.9c-9.25-20.14-21.35-38.84-35.91-55.54l-51.55,44.96c10.27,11.77,18.79,24.95,25.3,39.14l62.16-28.56Z"/>
      <path class="cls-4" d="m244.49,231.68c0-12.74-1.04-25.46-3.13-38.03-2.09-12.57-5.21-24.95-9.33-37l-64.72,22.14c2.91,8.49,5.11,17.22,6.58,26.07,1.47,8.86,2.21,17.82,2.21,26.8l68.4.03Z"/>
      <polygon class="cls-1" points="19.83 221.18 10.07 221.18 12.51 92.51 17.39 92.51 19.83 221.18"/>
      <polygon class="cls-1" points="22.43 233.33 22.43 222.52 121.93 225.22 121.93 230.63 22.43 233.33"/>
      <rect class="cls-7" x="4.35" y="218" width="21" height="21" transform="translate(-157.22 77.43) rotate(-45)"/>
    </g>
  </g>
</svg>