<?xml version="1.0" encoding="UTF-8"?>
<svg id="Layer_2" data-name="Layer 2" xmlns="http://www.w3.org/2000/svg" viewBox="0 0 139.27 83.19">
  <defs>
    <style>
      .cls-1 {
        fill: #fff;
      }

      .cls-2 {
        fill: #3945af;
      }
    </style>
  </defs>
  <g id="Layer_1-2" data-name="Layer 1">
    <g>
      <path class="cls-2" d="m1.11,13.81h25.08c.28,0,.56-.11.76-.3L41.04.3c.21-.19.48-.3.76-.3h55.48c.28,0,.56.11.76.3l14.08,13.21c.21.19.48.3.76.3h25.27c.62,0,1.11.5,1.11,1.11v53.59c0,.62-.5,1.11-1.11,1.11h-15.09c-.35,0-.68-.17-.89-.45l-4.62-6.22c-.21-.28-.54-.45-.89-.45h-10.15c-.34,0-.66.15-.87.42l-11.95,14.9c-.05.07-.11.12-.18.18-.63.49-4.22,2.99-8.86.34-.41-.23-.92-.16-1.27.16-2.2,2.05-10.26,8.46-18.58,1.59-.37-.31-.89-.37-1.3-.11-2.55,1.58-12.05,6.54-21.69-.44-9.85-7.13-16.37-14.42-17.85-16.14-.21-.25-.51-.38-.84-.38h-1.47c-.52,0-.96.35-1.08.85-.36,1.56-1.52,4.74-4.93,5.15-3.69.44-11.69.17-14.58.05-.6-.02-1.06-.52-1.06-1.11V14.93c0-.62.5-1.11,1.11-1.11Z"/>
      <path class="cls-1" d="m21.94,24.4h6.88c.29,0,.57-.11.78-.31l14.25-13.82c.21-.2.49-.31.78-.31h9.45c.96,0,1.47,1.13.84,1.85l-9.26,10.57s-.03.03-.04.05c-.2.26-1.8,2.51-1.8,6.61,0,4.36,3.09,15.45,13.81,15.45,8.06,0,11.91-2.88,13.33-4.31.41-.41,1.06-.46,1.51-.1l22.83,18.6c.47.39.55,1.08.16,1.56l-6.79,8.45c-.39.48-1.09.56-1.57.17l-4.64-3.72c-.47-.38-1.16-.31-1.55.15l-6.9,8.18c-.4.47-1.1.53-1.57.14l-8.39-7.03c-.47-.39-1.16-.34-1.56.12l-4.54,5.24s-.07.08-.12.12c-.6.5-5.1,4-10.43-.06s-17.93-17.26-20.12-19.56c-.21-.22-.5-.34-.8-.34h-4.54c-.62,0-1.11-.5-1.11-1.11v-25.49c0-.62.5-1.11,1.11-1.11Z"/>
      <path class="cls-1" d="m118.33,25.97v25.12c0,.62-.5,1.11-1.11,1.11h-14.29c-.26,0-.51-.09-.72-.26l-22.72-19.02c-.51-.43-.53-1.21-.05-1.67l3.27-3.09c.44-.42.47-1.11.06-1.56l-4.78-5.23c-.42-.45-1.12-.49-1.57-.07l-12.98,11.85c-.62.56-1.37.97-2.19,1.14-1.71.36-4.69.59-6.72-1.44-2.77-2.77.42-7.15.93-7.82.05-.06.09-.11.15-.16l16.69-14.29c.2-.17.46-.27.73-.27h21.1c.31,0,.6.13.81.35l13.15,13.85c.21.22.5.35.81.35h8.31c.62,0,1.11.5,1.11,1.11Z"/>
      <circle class="cls-1" cx="10.27" cy="59.1" r="3.48"/>
      <circle class="cls-1" cx="129" cy="59.1" r="3.48"/>
    </g>
  </g>
</svg>