<?xml version="1.0" encoding="UTF-8"?>
<svg id="Layer_2" data-name="Layer 2" xmlns="http://www.w3.org/2000/svg" viewBox="0 0 136.04 162.93">
  <defs>
    <style>
      .cls-1 {
        fill: none;
        stroke: #fff;
        stroke-miterlimit: 10;
        stroke-width: 3px;
      }

      .cls-2 {
        fill: #fff;
        font-family: Averta-Semibold, Averta-Semibold;
        font-size: 39.59px;
        font-weight: 600;
      }

      .cls-3 {
        fill: #1976d2;
      }
    </style>
  </defs>
  <g id="_Ñëîé_1" data-name="Ñëîé 1">
    <g>
      <path class="cls-3" d="m34.82,56.32c-15.53,0-28.16-12.63-28.16-28.16S19.29,0,34.82,0s28.16,12.63,28.16,28.16-12.63,28.16-28.16,28.16Zm0-51.32c-12.77,0-23.16,10.39-23.16,23.16s10.39,23.16,23.16,23.16,23.16-10.39,23.16-23.16S47.59,5,34.82,5Z"/>
      <path class="cls-3" d="m134.63,111.94l-40.13-70.57c-2.06-3.62-5.46-6.32-9.54-7.58l-19.48-6-10.31-3.17-17.59-5.41c-3.86-1.18-8.07,1.21-9.02,5.13l-5.11,21.05c3.26,2.17,7.17,3.43,11.37,3.43.09,0,.17,0,.26-.01.66-6.61,6.25-11.77,13.04-11.77,1.72,0,3.37.33,4.87.94,3.31,1.32,5.95,3.95,7.28,7.26.61,1.51.95,3.17.95,4.9,0,7.24-5.87,13.11-13.1,13.11-4,0-7.58-1.79-9.98-4.61-1.09.12-2.2.18-3.32.18-4.98,0-9.67-1.19-13.83-3.3l-4.13,17c-1.01,4.15-.42,8.45,1.64,12.07l40.13,70.57c3.09,5.44,10.23,7.2,15.96,3.95l55.27-31.44c5.73-3.25,7.86-10.29,4.77-15.73Z"/>
      <path class="cls-3" d="m9.48,83.08c-2.39-6.47.93-13.19.93-13.19l4.09-9.53v-8.41l-10.67,12.46C1.18,67.5-.17,71.41.02,75.38l3.66,77.3c.28,5.96,5.59,10.53,11.86,10.24l29.94-1.42c-3.54-7.59-33.76-72.33-36-78.42Z"/>
      <text class="cls-2" transform="translate(74.64 115.11) rotate(-32.05)"><tspan x="0" y="0">$</tspan></text>
      <circle class="cls-1" cx="77.79" cy="99.42" r="22.88"/>
    </g>
  </g>
</svg>